# xmcd CD database file
#
# Track frame offsets:
#	150
#	16582
#	40143
#	59838
#	78762
#	102420
#	118586
#	135998
#	155652
#	162586
#	177872
#	199622
#	223831
#
# Disc length: 3228 seconds
#
# Revision: 1
# Processed by: cddbd v1.4PL0 Copyright (c) Steve Scherf et al.
# Submitted via: CDex 1.51
#
DISCID=ad0c9a0d
DTITLE=Jean-Jacques Milteau - Blue 3rd
DYEAR=2003
DGENRE=Blues
TTITLE0=Blue 3rd
TTITLE1=The Lonely Knows (with N'Dambi)
TTITLE2=Pride Street
TTITLE3=Some Kind of Pressure (with Terry Callier)
TTITLE4=The Turtle Walk (with Howard Johnson)
TTITLE5=Home Is Where the Hatred Is (with Gil Scott-Heron)
TTITLE6=Rainy Night in Jersey
TTITLE7=Daddy's Gone (with N'Dambi)
TTITLE8=Fishing Blues (with Howard Johnson)
TTITLE9=Englewood
TTITLE10=Paris Blues (with Terry Callier)
TTITLE11=Sunday Morning (with Howard Johnson)
TTITLE12=What a Wonderful World
EXTD=YEAR: 2003
EXTT0=
EXTT1=
EXTT2=
EXTT3=
EXTT4=
EXTT5=
EXTT6=
EXTT7=
EXTT8=
EXTT9=
EXTT10=
EXTT11=
EXTT12=
PLAYORDER=
